<?xml version="1.0" standalone="no"?>
<!DOCTYPE svg PUBLIC "-//W3C//DTD SVG 20010904//EN"
 "http://www.w3.org/TR/2001/REC-SVG-20010904/DTD/svg10.dtd">
<svg version="1.0" xmlns="http://www.w3.org/2000/svg"
 width="200.000000pt" height="200.000000pt" viewBox="0 0 200.000000 200.000000"
 preserveAspectRatio="xMidYMid meet">

<g transform="translate(0.000000,200.000000) scale(0.100000,-0.100000)"
fill="#000000" stroke="none">
<path d="M0 1000 l0 -1000 1000 0 1000 0 0 1000 0 1000 -1000 0 -1000 0 0
-1000z m1121 623 l99 -58 -43 -36 -42 -37 -40 22 c-142 81 -186 108 -181 113
15 15 82 52 95 53 7 0 58 -26 112 -57z m-109 -187 l213 -124 45 25 c25 14 49
29 53 33 5 4 -17 22 -47 40 -31 17 -56 35 -56 39 0 4 18 22 39 39 l40 32 117
-68 c64 -37 117 -71 117 -77 0 -5 -69 -50 -153 -98 l-152 -88 -212 122 c-116
67 -215 122 -221 122 -5 0 -54 -26 -107 -57 -53 -31 -102 -56 -109 -56 -19 0
-101 51 -94 58 9 10 298 180 307 181 4 1 103 -55 220 -123z m-79 -203 c184
-106 183 -105 227 -194 22 -43 38 -79 35 -79 -3 0 -92 50 -197 112 -106 61
-197 111 -203 111 -5 0 -61 -30 -124 -66 l-114 -66 -51 30 c-28 16 -77 44
-108 62 l-58 32 0 63 0 64 33 -20 c90 -54 176 -102 184 -102 5 0 58 29 118 64
61 36 113 65 118 65 4 1 67 -33 140 -76z m727 -109 l0 -186 -52 31 -53 30 -3
60 c-2 34 -5 61 -8 61 -3 0 -59 -31 -125 -70 -66 -38 -124 -70 -128 -70 -4 0
-17 20 -29 45 l-22 45 23 14 c33 21 391 226 394 226 2 0 3 -84 3 -186z m-1212
-257 l3 -125 -51 -31 c-28 -17 -52 -31 -55 -31 -3 0 -5 84 -5 186 l0 186 53
-31 52 -30 3 -124z m545 57 c111 -64 204 -118 207 -120 3 -1 59 28 125 66
l118 69 41 -25 c23 -13 71 -41 108 -62 l68 -37 0 -63 c0 -72 14 -74 -127 10
-45 26 -85 48 -90 48 -5 0 -59 -29 -121 -65 -61 -36 -114 -65 -117 -65 -2 0
-98 54 -213 120 -115 66 -214 120 -220 120 -6 0 -61 -29 -122 -65 -61 -36
-113 -65 -116 -65 -3 0 -4 27 -2 61 l3 61 115 68 c63 38 121 67 128 64 7 -2
104 -56 215 -120z m-91 -196 l128 -73 0 -63 0 -64 -32 20 c-18 11 -76 44 -129
75 l-96 55 -52 -30 c-28 -16 -51 -31 -51 -33 0 -1 94 -58 210 -125 116 -67
210 -123 210 -125 0 -7 -89 -55 -102 -55 -21 1 -521 294 -520 305 1 8 285 181
302 184 2 1 62 -32 132 -71z m576 -84 c24 -14 40 -30 35 -34 -4 -5 -75 -47
-157 -95 l-150 -86 -45 25 -46 25 -3 60 c-2 34 0 61 3 61 4 0 25 -11 48 -24
l42 -24 100 58 c55 33 106 59 114 60 8 0 34 -12 59 -26z"/>
</g>
</svg>
